<?xml version="1.0" encoding="UTF-8" standalone="no"?>
<!-- Created with Inkscape (http://www.inkscape.org/) -->

<svg
   width="2515"
   height="562"
   viewBox="0 0 2515 562"
   version="1.1"
   id="svg5"
   sodipodi:docname="gabl.ink_logo.svg"
   inkscape:version="1.2.2 (b0a8486541, 2022-12-01)"
   inkscape:export-filename="gabl.ink_logo.png"
   inkscape:export-xdpi="300"
   inkscape:export-ydpi="300"
   xmlns:inkscape="http://www.inkscape.org/namespaces/inkscape"
   xmlns:sodipodi="http://sodipodi.sourceforge.net/DTD/sodipodi-0.dtd"
   xmlns="http://www.w3.org/2000/svg"
   xmlns:svg="http://www.w3.org/2000/svg"
   xmlns:rdf="http://www.w3.org/1999/02/22-rdf-syntax-ns#"
   xmlns:cc="http://creativecommons.org/ns#"
   xmlns:dc="http://purl.org/dc/elements/1.1/">
  <title
     id="title11">gabl.ink logo</title>
  <sodipodi:namedview
     id="namedview7"
     pagecolor="#ffffff"
     bordercolor="#000000"
     borderopacity="0.25"
     inkscape:showpageshadow="true"
     inkscape:pageopacity="0"
     inkscape:pagecheckerboard="true"
     inkscape:deskcolor="#d1d1d1"
     inkscape:document-units="px"
     showgrid="false"
     inkscape:zoom="1.0633188"
     inkscape:cx="1390.9282"
     inkscape:cy="326.33676"
     inkscape:window-width="1920"
     inkscape:window-height="1017"
     inkscape:window-x="0"
     inkscape:window-y="27"
     inkscape:window-maximized="1"
     inkscape:current-layer="layer1"
     showborder="false"
     borderlayer="true" />
  <defs
     id="defs2">
    <rect
       x="259.51263"
       y="225.09888"
       width="403.55649"
       height="191.87608"
       id="rect1526" />
  </defs>
  <g
     inkscape:groupmode="layer"
     id="layer2"
     inkscape:label="white"
     style="fill:#000000">
    <path
       style="fill:#ffffff;fill-opacity:1;stroke:#ffffff;stroke-width:18.809;stroke-linecap:round;stroke-linejoin:round;stroke-dasharray:none;stroke-opacity:1"
       d="m 226.21538,153.44058 c -9.16895,-2.29594 -6.45026,9.69719 -7.31788,14.88559 -1.07343,8.61711 2.77082,24.95038 -8.89022,27.71761 -15.30164,2.06224 -23.4267,-14.96484 -36.3176,-20.23073 -26.16709,-16.5948 -61.44124,-16.52387 -86.903616,1.49517 -40.918974,28.14314 -66.700448,79.97266 -59.377038,129.70519 4.850345,31.98815 30.912717,57.14809 61.463665,65.60753 26.493979,7.67898 54.914599,6.59005 82.058089,3.51201 14.05381,-0.56053 21.68513,-14.57392 34.53956,-17.40203 13.62212,-0.3 16.21334,16.62217 14.69942,27.05012 -1.73244,31.48743 -12.2309,69.41014 -44.15834,82.58965 -18.22372,8.84835 -39.09541,2.17013 -53.2641,-10.99887 -10.2509,-7.09802 -19.66702,-21.97093 -34.005403,-17.2177 -18.383321,3.84357 -37.556038,7.52424 -55.653444,10.77781 1.252105,26.6811 21.199351,49.40227 42.790555,63.44742 31.640292,21.11606 71.601152,24.09521 108.273182,18.58495 50.514,-13.04113 89.0652,-60.72751 91.23851,-112.85421 3.17109,-75.39254 -0.8635,-150.90287 -2.57814,-226.29893 -1.64225,-11.94226 1.32625,-25.43298 -3.13068,-36.62347 -13.42296,-4.61085 -29.34334,-2.94765 -43.46652,-3.74711 z m -95.68729,58.48067 c 27.75574,-1.40654 60.56763,11.39732 69.04606,40.13451 6.623,26.79214 -6.22068,56.01586 -30.10548,69.76242 -17.46952,10.97134 -40.51918,12.15913 -59.80685,5.66108 C 83.737503,316.24115 74.255625,284.35951 81.514391,258.51402 86.634359,235.5221 105.54266,212.61168 130.52809,211.92125 Z"
       id="path18328" />
    <path
       style="fill:#ffffff;fill-opacity:1;stroke:#ffffff;stroke-width:18.809;stroke-linecap:round;stroke-linejoin:round;stroke-dasharray:none;stroke-opacity:1"
       d="m 444.58755,149.66775 c -35.6671,0.0117 -72.77549,15.38641 -92.97248,45.54946 10.64403,8.29917 22.28121,15.45534 33.84525,22.2145 13.20175,-11.13134 30.21645,-23.2319 48.37481,-17.1094 21.6096,3.39864 44.09169,10.14028 57.86685,28.39482 14.84084,16.87898 17.98247,40.62051 19.7605,62.12492 -1.66411,10.37112 -13.75498,11.95383 -21.73931,7.69311 -28.42874,-10.4784 -59.33717,-24.81807 -90.10097,-14.79425 -26.63283,5.35907 -50.10182,26.02866 -54.39926,53.53227 -9.92138,43.53866 24.21729,90.08282 67.39292,97.21186 18.40844,1.03172 38.60709,1.74155 53.67188,-10.8409 10.7251,-7.01416 19.65644,-16.30881 26.98655,-26.64125 7.9008,-8.10884 23.36787,-1.94288 22.36512,9.76821 1.88649,9.49166 -2.00868,21.24091 3.55976,29.503 13.34525,2.75968 27.72271,0.82463 41.11536,1.02128 -4.42757,-67.09659 -2.43074,-134.50962 -7.65219,-201.52853 -4.36552,-32.38471 -22.97345,-65.35775 -55.39113,-76.30885 -16.68032,-6.71693 -34.71303,-9.97967 -52.68366,-9.79025 z m -9.61024,163.76719 c 16.84828,-1.17053 38.85134,6.28248 40.91332,25.68609 5.77016,21.02901 0.45345,48.90521 -22.31369,57.06632 -24.17383,8.17339 -55.25591,0.28826 -66.73901,-24.09908 -10.16645,-20.49777 1.6501,-46.56736 22.94555,-53.93638 7.92516,-3.29974 16.59845,-4.70516 25.19383,-4.71695 z"
       id="path19365" />
    <path
       style="fill:#ffffff;fill-opacity:1;stroke:#ffffff;stroke-width:18.809;stroke-linecap:round;stroke-linejoin:round;stroke-dasharray:none;stroke-opacity:1"
       d="m 650.44362,25.54649 c -8.41886,3.120298 -28.8825,-5.997671 -28.28129,6.419469 -1.01669,95.265471 4.47981,190.488821 4.62305,285.763461 0.5686,39.9137 -0.17763,80.11417 0.49594,119.84514 18.86067,-0.17635 38.01354,0.35272 56.69161,-0.26449 1.67083,-13.18064 -3.65195,-29.26116 4.7096,-40.78843 7.93743,-5.56008 18.42603,-0.64897 22.20716,7.62648 14.80857,24.71562 44.65764,38.69466 73.07495,32.98762 38.74639,-7.16314 77.5541,-27.76841 98.8624,-61.84038 34.88367,-60.5201 28.64191,-146.90462 -25.93589,-193.94981 -30.39834,-26.73357 -75.70328,-33.73439 -112.74768,-17.4902 -18.85394,6.40326 -34.11152,20.08331 -52.02976,27.98579 -9.67293,2.20959 -17.60399,-8.13237 -14.3055,-17.3578 0.0765,-49.78177 0.87769,-99.863513 0.50731,-149.458507 -9.29063,0.173886 -18.58127,0.347772 -27.8719,0.521657 z m 118.55937,202.4653 c 33.80919,-3.59378 68.73654,20.86539 73.67116,55.07888 5.76518,28.63376 -7.02579,60.94355 -34.30811,73.69321 -32.45959,17.58833 -81.17471,12.14774 -100.18383,-22.41288 -8.88798,-15.66159 -7.19352,-35.05634 -4.66185,-52.13261 10.26941,-24.38369 31.07412,-45.82859 56.60712,-53.66086 2.88123,-0.4816 5.92025,-0.53912 8.87551,-0.56574 z"
       id="path19367" />
    <path
       style="fill:#ffffff;fill-opacity:1;stroke:#ffffff;stroke-width:18.809;stroke-linecap:round;stroke-linejoin:round;stroke-dasharray:none;stroke-opacity:1"
       d="m 1006.9887,33.077452 c -11.57657,0.326776 -23.38666,0.044 -34.82241,0.738401 -5.58179,42.538161 -2.33834,85.720447 -3.11849,128.514877 1.12248,71.06013 0.7792,142.25338 5.49533,213.18137 3.55029,23.49246 9.2007,53.41104 34.38897,62.87802 24.1875,8.21866 51.4699,10.33056 76.239,3.83161 4.9822,-8.48073 1.9597,-20.01381 2.6686,-29.54783 -0.4024,-8.27353 -1.6901,-23.0074 -13.7929,-20.73354 -12.7513,-0.71781 -29.7766,-1.37246 -35.5189,-14.62816 -0.031,-114.88574 0.8792,-230.07527 3.0261,-344.749058 -11.5218,0.171437 -23.0435,0.342873 -34.5653,0.51431 z"
       id="path19369" />
    <path
       style="fill:#ffffff;fill-opacity:1;stroke:#ffffff;stroke-width:18.809;stroke-linecap:round;stroke-linejoin:round;stroke-dasharray:none;stroke-opacity:1"
       d="m 1217.9952,304.8827 c -30.9848,1.67968 -52.1873,31.51179 -59.8031,59.11621 -10.448,32.2041 8.6803,71.9326 42.8052,79.14489 20.8581,3.54042 46.1147,2.42571 60.0126,-16.02808 22.1119,-23.81044 23.4955,-61.72355 11.0062,-90.47808 -9.3088,-20.32629 -32.0909,-32.44087 -54.0209,-31.75494 z"
       id="path19371" />
    <path
       style="fill:#ffffff;fill-opacity:1;stroke:#ffffff;stroke-width:18.809;stroke-linecap:round;stroke-linejoin:round;stroke-dasharray:none;stroke-opacity:1"
       d="m 1423.0798,165.37624 c -21.8423,0.82607 -44.3374,0.23854 -65.8279,2.02417 -3.6439,86.48553 -3.8741,173.17265 -1.7376,259.72264 43.9488,-0.38287 88.672,-0.3413 132.5449,-3.90138 4.1831,-70.56641 2.1727,-141.36426 2.27,-212.02346 -0.2089,-15.69773 -0.3636,-31.67699 -2.1819,-47.13714 -21.6891,0.43839 -43.3783,0.87678 -65.0675,1.31517 z"
       id="path19373" />
    <path
       style="fill:#ffffff;fill-opacity:1;stroke:#ffffff;stroke-width:18.809;stroke-linecap:round;stroke-linejoin:round;stroke-dasharray:none;stroke-opacity:1"
       d="m 1824.965,158.93267 c -32.5487,0.0231 -68.1404,15.03321 -80.9193,46.98585 -5.1915,12.43043 -3.5177,39.63879 -24.2276,34.34119 -11.0297,-6.11289 -7.1712,-21.97426 -8.378,-32.35741 -0.5454,-10.9981 1.4474,-22.9648 -1.3425,-33.5183 -42.3617,-4.91773 -85.3222,-5.68918 -127.9786,-5.42229 -9.007,2.5266 -28.1868,-4.77341 -23.8482,10.99159 -2.6988,77.59582 -2.4544,155.32591 -0.4566,232.93073 -3.139,14.29951 7.1232,13.0378 17.5563,11.74677 45.5917,0.0795 91.5441,5.28739 136.8615,4.51645 1.0421,-35.97697 -9.7754,-74.24824 4.3092,-108.70301 8.0306,-18.71011 29.3056,-29.88559 49.1863,-24.59869 21.0014,4.68432 27.4385,29.1563 31.6338,47.44873 6.0065,30.18659 3.8985,61.60466 7.9901,91.77855 51.7617,3.83273 103.9955,6.49398 155.755,5.99904 -1.7448,-62.65923 -2.6114,-125.57675 -10.0437,-187.87728 -2.9354,-25.57223 -12.496,-52.666 -35.8113,-66.48399 -26.1755,-18.38581 -58.2776,-28.39274 -90.2864,-27.77793 z"
       id="path19375" />
    <path
       style="fill:#ffffff;fill-opacity:1;stroke:#ffffff;stroke-width:18.809;stroke-linecap:round;stroke-linejoin:round;stroke-dasharray:none;stroke-opacity:1"
       d="m 2019.7634,175.44936 c 1.0863,89.37644 1.7952,179.04977 3.6039,268.23447 45.6426,-1.32467 91.5552,-0.96177 137.0341,-3.75446 3.6686,-25.7085 1.1222,-52.44893 7.0056,-77.74524 3.7685,-12.15646 21.7373,-10.65897 25.4363,0.88167 16.419,29.00013 29.0732,60.73447 50.6962,86.39298 57.4947,-1.29756 115.6419,-2.07411 172.7529,-2.8838 -19.1058,-29.66487 -46.4559,-52.91158 -69.7388,-79.18225 -15.8181,-18.43481 -36.1403,-33.90533 -48.0491,-55.29132 -2.3659,-10.60526 10.0425,-18.23971 14.9793,-26.41161 28.7591,-34.54034 55.6525,-71.30836 92.0859,-98.3814 17.848,-10.56618 -6.7619,-6.25095 -14.9408,-7.15884 -45.4504,0.16477 -91.1191,-1.66809 -136.4505,0.38044 -25.8631,25.79256 -41.7069,60.22235 -67.6575,85.98154 -6.5982,6.02527 -19.419,1.08993 -18.2065,-8.54856 -2.4155,-25.88378 2.1203,-52.33364 -1.8368,-77.96566 -6.5999,-5.03738 -17.2601,-1.01243 -25.0396,-2.92421 -40.512,-1.0199 -81.338,-1.66958 -121.6746,-1.62375 z"
       id="path19377" />
  </g>
  <g
     inkscape:label="black"
     inkscape:groupmode="layer"
     id="layer1"
     transform="translate(-42.349196,-20.984839)">
    <path
       style="fill:none;fill-opacity:1;stroke:#000000;stroke-width:25;stroke-linecap:round;stroke-linejoin:round;stroke-dasharray:none;stroke-opacity:1"
       d="M 247.12984,202.87666 C 91.386168,62.845335 -67.602719,428.40622 194.89353,412.65627 c 28.81032,-1.72864 40.0111,-5.39205 53.05922,-20.00913"
       id="path1863"
       sodipodi:nodetypes="csc" />
    <path
       style="fill:none;fill-opacity:1;stroke:#000000;stroke-width:25;stroke-linecap:round;stroke-linejoin:round;stroke-dasharray:none;stroke-opacity:1"
       d="m 230.68998,284.1566 c -1.48908,-30.65914 -43.07202,-42.06232 -60.3529,-38.3509 -21.49093,4.61561 -37.07687,28.17233 -35.57076,55.25125 3.40408,61.20312 98.01932,45.88978 95.92366,-16.90035 z"
       id="path1867"
       sodipodi:nodetypes="cssc" />
    <path
       style="fill:none;fill-opacity:1;stroke:#000000;stroke-width:25;stroke-linecap:round;stroke-linejoin:round;stroke-dasharray:none;stroke-opacity:1"
       d="m 873.62176,319.23763 c -1.29392,-52.87172 -49.60318,-60.88103 -66.88406,-57.16961 -21.49093,4.61561 -50.78454,33.41363 -50.88949,60.5342 -0.2847,73.56387 116.59401,66.18166 117.77355,-3.36459 z"
       id="path1867-3"
       sodipodi:nodetypes="cssc" />
    <path
       style="fill:none;fill-opacity:1;stroke:#000000;stroke-width:25;stroke-linecap:round;stroke-linejoin:round;stroke-dasharray:none;stroke-opacity:1"
       d="m 248.09684,204.85255 c -1.66283,-40.3101 -3.0439,-45.08129 33.37628,-43.18305 13.86809,0.72282 39.03908,-0.45645 43.06407,1.78755 6.34193,40.68637 4.49057,92.64309 5.12026,133.43579 1.1162,72.30983 19.82127,169.22179 -30.89549,226.91577 -22.37118,25.44882 -49.03059,40.0033 -72.0895,43.79472 -82.51179,13.56684 -153.820274,-27.14092 -165.394974,-91.81447 -3.758149,-20.99863 23.686465,-20.12335 40.917734,-24.26522 16.2136,-3.89726 15.84713,-2.92792 33.1264,-6.56235 25.30949,-5.32346 41.07803,38.98021 65.9366,35.49952 53.71509,-7.52115 48.79621,-89.89015 47.59273,-86.82121"
       id="path1941"
       sodipodi:nodetypes="cscsssssssc" />
    <path
       style="fill:none;fill-opacity:1;stroke:#000000;stroke-width:25;stroke-linecap:round;stroke-linejoin:round;stroke-dasharray:none;stroke-opacity:1"
       d="m 377.48401,220.53038 c 33.86357,-81.95569 173.23722,-80.85927 213.37838,-16.23893 28.16869,45.34672 18.73566,108.97884 21.44177,164.81925 0.39239,8.0969 3.76499,112.79015 3.59244,101.91988 -24.79731,0.41013 -73.14737,-0.91568 -67.79814,0.69847 -5.31578,-37.6393 -1.12988,-50.08966 -3.99721,-42.44859 -65.80432,91.79754 -196.89841,15.88932 -167.43076,-83.73283 11.18341,-37.8081 46.92564,-55.8362 90.72884,-57.92767 24.60855,-1.17498 73.42241,21.62815 73.42241,21.62815 -5.35236,-45.75268 -3.26099,-81.63588 -71.01071,-73.15122 -7.65751,0.95899 -29.40338,9.63342 -34.32242,14.06118 -11.75435,10.58041 -60.99585,-33.12897 -58.0046,-29.62769 z"
       id="path1962"
       sodipodi:nodetypes="csscccsscssc" />
    <path
       style="fill:none;fill-opacity:1;stroke:#000000;stroke-width:25;stroke-linecap:round;stroke-linejoin:round;stroke-dasharray:none;stroke-opacity:1"
       d="m 650.06361,34.055096 c 0.82053,116.712564 4.12366,164.233874 6.28731,281.163774 0.51327,27.73886 -0.0987,146.76824 -0.94503,157.05064 16.97339,0.75542 80.2103,-0.46152 84.42718,0.65472 0.81879,-23.78263 0.27046,-21.95292 -0.66892,-44.74586 52.39045,90.9066 172.07328,21.59706 196.73577,-22.86344 82.69538,-149.07972 -55.94113,-319.642971 -203.1087,-205.07789 1.38759,-68.83351 -0.61765,-98.71426 1.13477,-166.489855 0.0177,-0.685001 -27.83546,0.172689 -83.86238,0.307911 z"
       id="path1964"
       sodipodi:nodetypes="cscccscsc" />
    <path
       style="fill:none;fill-opacity:1;stroke:#000000;stroke-width:25;stroke-linecap:round;stroke-linejoin:round;stroke-dasharray:none;stroke-opacity:1"
       d="m 1096.2111,40.369152 c -16.2236,-0.678713 -75.7332,-0.507688 -89.7736,1.708418 -14.75585,2.329018 -7.8758,195.28982 -6.5093,221.72904 2.5991,50.29035 -9.23682,161.04127 27.555,197.49149 23.9535,23.73107 115.761,25.50165 115.8754,4.41437 0.1309,-24.12004 3.5472,-41.32156 -6.8045,-61.84997 -2.5729,-5.10233 -38.34,-2.95355 -41.8327,-8.16785 -1.2817,-1.91349 -1.3381,-30.41452 -0.2472,-73.3458 1.3871,-54.5898 -1.4467,-84.39816 -0.1274,-147.7709 0.8614,-41.3732 4.4516,-94.199719 1.8643,-134.208798 z"
       id="path1966"
       sodipodi:nodetypes="cssssssssc" />
    <path
       style="fill:none;fill-opacity:1;stroke:#000000;stroke-width:25;stroke-linecap:round;stroke-linejoin:round;stroke-dasharray:none;stroke-opacity:1"
       d="m 1298.181,321.77772 c -86.0272,-48.78092 -159.0195,96.41297 -79.4334,146.62134 12.172,7.67894 26.5777,10.27874 40.5813,11.13153 70.8294,4.31337 94.4236,-84.87101 62.7954,-136.69198 -4.9077,-8.04083 -18.3711,-18.64911 -23.9433,-21.06089 z"
       id="path3492"
       sodipodi:nodetypes="csssc" />
    <path
       style="fill:none;fill-opacity:1;stroke:#000000;stroke-width:25;stroke-linecap:round;stroke-linejoin:round;stroke-dasharray:none;stroke-opacity:1"
       d="m 1542.5572,449.40921 c 1.0514,14.01703 -23.1819,7.15221 -32.9434,9.78713 -39.4625,0.80154 -78.9923,0.36383 -118.3692,3.4937 -5.6548,-5.65173 -7.3576,-6.04608 -0.2451,-0.81131 8.9617,8.75165 -10.1172,20.92396 -6.9847,4.17672 -3.0482,-44.18275 0.4512,-88.48311 -1.2133,-132.70695 0.1098,-52.68412 2.6917,-105.32511 3.0379,-158.00594 31.8503,-2.32732 63.8341,-0.76214 95.7272,-2.27845 20.7676,-0.49042 41.5476,-1.10894 62.3197,-0.49296 -0.3807,21.39651 2.8658,42.69972 2.3287,64.13343 0.783,67.59197 1.2263,135.2572 -1.8576,202.7941 -0.3131,3.34602 -0.8392,6.68476 -1.8002,9.91053 z"
       id="path3494"
       sodipodi:nodetypes="csscsccscsc" />
    <path
       style="fill:none;fill-opacity:1;stroke:#000000;stroke-width:25;stroke-linecap:round;stroke-linejoin:round;stroke-dasharray:none;stroke-opacity:1"
       d="m 1585.9023,183.85889 c 1.5116,18.96955 0.7016,27.46465 0.4329,46.4542 -0.8526,60.2728 -1.5387,120.10804 -0.993,180.25706 0.1546,17.04883 9.3133,73.40241 -3.9725,67.52023"
       id="path4224"
       sodipodi:nodetypes="cssc" />
    <path
       style="fill:none;fill-opacity:1;stroke:#000000;stroke-width:25;stroke-linecap:round;stroke-linejoin:round;stroke-dasharray:none;stroke-opacity:1"
       d="m 1585.8838,178.88073 c 20.1732,-2.12609 37.4418,-1.69705 58.2334,-2.84624 14.8302,-0.81969 125.747,6.32308 120.7955,5.47571 5.9158,8.5099 -0.9793,103.92437 4.7122,51.80202 24.1259,-89.38573 157.9751,-83.06326 216.7911,-18.23383 29.409,32.41594 26.0445,149.94702 28.3933,187.73223 1.9658,31.62417 1.2958,52.62037 1.58,78.1642 0.023,2.04066 -1.21,-3.89816 -1.8057,-5.8501 -60.0108,3.32404 -121.6299,-5.57301 -181.5101,-4.5095 -1.782,-19.20564 6.5753,-145.43395 -34.6679,-142.475 -46.9223,3.36638 -31.7285,75.09095 -30.7859,105.09921 0.3322,10.57794 0.1729,20.99179 -0.3612,31.56633 -0.1715,3.39632 -0.3159,13.59769 -0.3159,10.19704 0,-4.85671 0.1701,-8.46942 -0.316,-13.5284 -26.5002,9.37112 -168.5396,-14.71974 -184.7152,6.41888"
       id="path4228"
       sodipodi:nodetypes="csccsssccsssscc" />
    <path
       style="fill:none;fill-opacity:1;stroke:#000000;stroke-width:25;stroke-linecap:round;stroke-linejoin:round;stroke-dasharray:none;stroke-opacity:1"
       d="m 2053.478,477.61672 c -4.1515,11.48347 -1.0912,-52.80832 -1.5632,-63.71521 -2.0434,-47.22145 -1.1892,-103.60345 -1.4896,-162.0567 -0.1493,-29.05803 -2.5712,-39.66201 -1.3772,-68.62808 53.3916,-1.00968 130.2259,-1.73857 173.7429,4.97547 -0.4583,26.62639 1.4712,76.79171 -0.6059,88.47505 22.1547,-28.92919 49.0768,-66.63325 63.1845,-87.67698 49.7074,-5.18869 149.8773,3.22907 199.2411,-3.69609 -9.4604,26.7392 -52.3781,46.87637 -75.6882,77.77154 -10.6695,14.14138 -53.2066,65.25511 -55.2663,67.04745 5.0552,8.86835 37.4578,39.95723 45.5058,48.91197 23.1059,25.70919 32.3618,35.83955 57.7559,61.33444 5.6721,5.69461 35.5771,58.26649 23.157,40.829 -65.8204,-3.17446 -135.9332,4.52191 -200.0177,0.73129 -20.3065,-9.11747 -57.3169,-99.76991 -58.2976,-94.2021 -4.2042,8.73258 -3.2291,114.77311 -10.6139,87.61009 -52.5734,0.2425 -120.6507,2.19534 -157.6676,2.28886 z"
       id="path4230"
       sodipodi:nodetypes="csscccccscssccccc" />
    <path
       style="fill:none;fill-opacity:1;stroke:#000000;stroke-width:25;stroke-linecap:round;stroke-linejoin:round;stroke-dasharray:none;stroke-opacity:1"
       d="m 502.97497,354.34951 c -27.27835,-18.73107 -58.54716,1.41055 -62.45575,11.49857 -18.183,46.93018 89.7661,68.21007 62.45575,-11.49857 z"
       id="path4232"
       sodipodi:nodetypes="csc" />
    <path
       style="fill:none;fill-opacity:1;stroke:#000000;stroke-width:25;stroke-linecap:round;stroke-linejoin:round;stroke-dasharray:none;stroke-opacity:1"
       d="m 1385.2125,476.9881 c 8.3224,17.81112 19.4383,34.08197 29.3262,51.02029 53.2308,-4.7482 106.8567,-3.6404 160.0453,-8.91082 8.2605,-2.41868 -15.0326,-6.15762 -16.6655,-13.39294 -9.8046,-9.88312 -15.4618,-23.3025 -26.4604,-32.08061"
       id="path4236"
       sodipodi:nodetypes="cccc" />
    <path
       style="fill:none;fill-opacity:1;stroke:#000000;stroke-width:25;stroke-linecap:round;stroke-linejoin:round;stroke-dasharray:none;stroke-opacity:1"
       d="m 1579.6775,516.75619 c 0.9033,-19.26596 3.355,-38.69834 1.0834,-57.85122"
       id="path4238" />
    <path
       style="fill:none;fill-opacity:1;stroke:#000000;stroke-width:25;stroke-linecap:round;stroke-linejoin:round;stroke-dasharray:none;stroke-opacity:1"
       d="m 1544.5665,172.83363 c 4.834,7.65442 59.676,57.45054 28.936,55.60619"
       id="path4240"
       sodipodi:nodetypes="cc" />
    <path
       style="fill:none;fill-opacity:1;stroke:#000000;stroke-width:25;stroke-linecap:round;stroke-linejoin:round;stroke-dasharray:none;stroke-opacity:1"
       d="m 1593.1293,456.4674 c 10.9577,19.74688 20.9945,39.99172 31.6887,59.88251 49.509,13.65156 167.098,11.93942 184.6249,7.80017 -11.2694,-20.54836 -37.2178,-49.83009 -47.8489,-56.79493"
       id="path4242" />
    <path
       style="fill:none;fill-opacity:1;stroke:#000000;stroke-width:25;stroke-linecap:round;stroke-linejoin:round;stroke-dasharray:none;stroke-opacity:1"
       d="m 1809.1721,525.69392 c -2.9768,-39.693 -28.494,-167.19741 10.0212,-166.40371"
       id="path4244" />
    <path
       style="fill:none;fill-opacity:1;stroke:#000000;stroke-width:25;stroke-linecap:round;stroke-linejoin:round;stroke-dasharray:none;stroke-opacity:1"
       d="m 1851.5452,507.58867 c -4.6815,-41.92168 -107.4593,19.4181 -70.8115,19.19088 59.0272,0.43248 247.9949,10.64372 272.6487,-8.31707 -13.2926,-17.61913 -29.622,-30.10874 -35.867,-46.1836"
       id="path4246"
       sodipodi:nodetypes="cccc" />
    <path
       style="fill:none;fill-opacity:1;stroke:#000000;stroke-width:25;stroke-linecap:round;stroke-linejoin:round;stroke-dasharray:none;stroke-opacity:1"
       d="m 1767.526,182.00643 c 10.6071,4.16337 12.2178,6.79558 16.1892,16.3582"
       id="path4248"
       sodipodi:nodetypes="cc" />
    <path
       style="fill:none;fill-opacity:1;stroke:#000000;stroke-width:25;stroke-linecap:round;stroke-linejoin:round;stroke-dasharray:none;stroke-opacity:1"
       d="m 2053.8485,518.5 c -0.4391,-13.43305 -2.4108,-32.63647 -1.6148,-46.0531 15.0723,17.38966 34.3457,34.82374 49.72,51.94701 39.0537,12.94197 156.9019,8.93083 167.2097,8.38043 -12.729,-15.31594 -45.7735,-36.56923 -56.4348,-48.84385"
       id="path4252"
       sodipodi:nodetypes="ccccc" />
    <path
       style="fill:none;fill-opacity:1;stroke:#000000;stroke-width:25;stroke-linecap:round;stroke-linejoin:round;stroke-dasharray:none;stroke-opacity:1"
       d="m 2269.7862,532.51909 c 0.019,-19.22753 0.4945,-33.69428 4.5822,-52.48229 9.8884,17.63781 17.9213,32.52059 33.6971,45.16956 57.7403,11.76642 205.9161,19.29849 236.2887,3.39488 -19.9628,-6.899 -50.9906,-27.49657 -58.3447,-47.35204"
       id="path4254"
       sodipodi:nodetypes="ccccc" />
    <path
       style="fill:none;fill-opacity:1;stroke:#000000;stroke-width:25;stroke-linecap:round;stroke-linejoin:round;stroke-dasharray:none;stroke-opacity:1"
       d="M 2544.2409,525.93765 C 2532.509,500.32829 2407.2867,308.66569 2409.9887,338.79453"
       id="path4256"
       sodipodi:nodetypes="cc" />
    <path
       style="fill:none;fill-opacity:1;stroke:#000000;stroke-width:25;stroke-linecap:round;stroke-linejoin:round;stroke-dasharray:none;stroke-opacity:1"
       d="m 2048.2503,300.53739 c 8.1228,-48.87696 -61.2444,-94.52855 -104.2843,-116.71042"
       id="path5062"
       sodipodi:nodetypes="cc" />
    <path
       style="fill:#000000;fill-opacity:1;stroke:#000000;stroke-width:16.625;stroke-linecap:round;stroke-linejoin:round;stroke-dasharray:none;stroke-opacity:1"
       d="m 1624.2994,471.39201 c -2.2483,0.4465 -5.62,-0.68359 -7.3033,1.03387 2.1677,7.58096 6.9363,14.26902 10.2621,21.40872 2.127,3.91302 4.0432,8.00601 6.2993,11.8088 29.8373,5.85524 60.3226,7.79397 90.6735,8.5133 20.9151,-0.10122 41.8812,0.64559 62.7622,-0.71384 -3.0816,-5.26114 -8.0636,-10.30863 -12.0765,-15.34695 -4.1948,-4.67238 -8.2363,-10.12869 -14.491,-12.02455 -3.9256,-1.79147 -4.5155,-6.54623 -7.3488,-9.21778 -16.5121,-1.58024 -33.1951,-0.96609 -49.7499,-2.09528 -26.3311,-1.32449 -52.6509,-3.32031 -79.0276,-3.36629 z"
       id="path5485" />
    <path
       style="fill:#000000;fill-opacity:1;stroke:#000000;stroke-width:16.625;stroke-linecap:round;stroke-linejoin:round;stroke-dasharray:none;stroke-opacity:1"
       d="m 1798.9359,340.83904 c -9.1811,-0.12075 -16.16,7.68965 -18.3851,16.03573 -5.6364,19.40518 -2.7978,39.90467 -1.5057,59.71441 1.4933,16.65686 0.8994,33.43762 1.089,50.11536 3.323,3.18198 6.3591,6.73405 9.9191,9.6373 0.875,-2.71044 -0.606,-6.39505 -0.5648,-9.40146 -2.7987,-27.10374 -5.5327,-54.59195 -2.4381,-81.76845 1.9514,-13.85575 7.0282,-29.20883 20.2327,-36.15867 1.0744,-1.62894 -1.6527,-4.05376 -2.7544,-5.67398 -1.4142,-1.56927 -3.4426,-2.63397 -5.5927,-2.50024 z"
       id="path5487" />
    <path
       style="fill:#000000;fill-opacity:1;stroke:#000000;stroke-width:16.625;stroke-linecap:round;stroke-linejoin:round;stroke-dasharray:none;stroke-opacity:1"
       d="m 1855.3245,483.31914 c -2.9195,-0.31016 0.1188,3.43254 0.1594,4.82335 3.1403,8.27312 5.8257,16.85774 9.4545,24.86396 44.9205,2.71537 89.9453,4.8945 134.9603,3.61427 10.4556,-0.59948 21.0106,-1.29856 31.2871,-3.28956 -0.5345,-2.47457 -3.7145,-4.35813 -5.2603,-6.49154 -5.5542,-5.45709 -10.1705,-12.18071 -17.3913,-15.60022 -1.7337,-1.87236 -3.8926,-3.14498 -6.5855,-2.79099 -27.5351,-0.23572 -55.0751,-0.65867 -82.5629,-2.40176 -21.3433,-1.09496 -42.6861,-2.49779 -64.0613,-2.72751 z"
       id="path5489" />
    <path
       style="fill:#000000;fill-opacity:1;stroke:#000000;stroke-width:16.625;stroke-linecap:round;stroke-linejoin:round;stroke-dasharray:none;stroke-opacity:1"
       d="m 2006.6379,221.53781 c 0.7624,4.76351 3.7136,9.41735 5.1226,14.19749 12.3877,36.03585 15.4,74.47802 17.0666,112.32392 0.8427,22.44425 -0.014,44.9195 -2.6236,67.21659 -1.0804,17.762 -0.3937,35.67006 1.6846,53.32112 2.5643,7.48413 9.1363,12.67658 14.1922,18.48752 0.3768,0.62825 3.0317,2.89906 2.4276,0.878 -3.985,-5.08818 -5.5517,-11.8863 -3.6329,-18.06019 0.017,-23.00089 -2.3652,-45.99559 -0.8455,-69.00413 1.6021,-29.69108 1.3341,-59.47626 1.278,-89.18141 -3.5124,-3.16193 -6.0603,-7.52998 -5.3057,-12.4025 1.3816,-12.88744 1.737,-26.18604 -2.1469,-38.73105 -4.4181,-15.49147 -13.628,-30.02951 -27.0897,-39.07913 z"
       id="path5491" />
    <path
       style="fill:#000000;fill-opacity:1;stroke:#000000;stroke-width:33.25;stroke-linecap:round;stroke-linejoin:round;stroke-dasharray:none;stroke-opacity:1"
       d="m 1559.4476,210.15229 c -0.697,82.04356 -1.5473,164.09501 -4.8424,246.08063 0.899,8.36733 -2.4321,18.07604 1.2745,25.57181 3.8998,3.45921 5.7953,11.30458 11.0908,12.59342 3.7322,-7.09603 0.8123,-16.38658 1.4676,-24.17898 0.1451,-7.90366 -1.714,-18.34239 5.7772,-23.40228 0.7216,-12.79736 -1.3224,-25.82995 -0.7956,-38.74875 -1.1639,-54.7237 0.5796,-109.51704 -1.5397,-164.20348 -0.157,-4.59623 -6.7438,-3.95549 -8.3878,-8.13066 -4.1983,-5.17462 -3.3046,-13.12475 1.6443,-17.56275 0.075,-3.12868 -4.0155,-6.50078 -5.6889,-8.01896 z"
       id="path5774" />
    <path
       style="fill:#000000;fill-opacity:1;stroke:#000000;stroke-width:16.625;stroke-linecap:round;stroke-linejoin:round;stroke-dasharray:none;stroke-opacity:1"
       d="m 2481.0062,450.07435 c -2.5598,0.9843 0.3216,4.11956 0.9013,5.61967 2.7785,4.33429 4.8222,9.31693 8.0061,13.30555 3.8363,1.88761 6.9355,4.88009 8.474,8.93409 2.4564,4.07889 4.8766,8.91525 8.7887,11.61466 0.02,-2.53359 -2.8358,-4.86006 -3.8414,-7.22677 -7.1629,-10.57543 -13.3719,-21.90202 -21.3689,-31.86015 -0.2708,-0.21654 -0.5985,-0.41731 -0.9598,-0.38705 z"
       id="path5826" />
    <path
       style="fill:#000000;fill-opacity:1;stroke:#000000;stroke-width:16.625;stroke-linecap:round;stroke-linejoin:round;stroke-dasharray:none;stroke-opacity:1"
       d="m 2435.8252,493.27726 c -42.9455,0.27533 -85.8612,2.26714 -128.8122,2.13894 -2.5822,0.39829 -5.9405,-0.50019 -8.1713,0.64315 4.035,6.60332 9.5747,12.31355 15.182,17.616 40.8366,6.51236 82.1544,9.9818 123.4834,10.9814 22.442,-0.0783 44.9403,0.43254 67.3413,-1.04465 4.7287,-0.46264 -3.1609,-4.04765 -4.6754,-5.8935 -7.6647,-5.5823 -13.7085,-12.89291 -20.0266,-19.84999 -2.1593,-1.67187 -4.5283,-3.46935 -7.1838,-4.15495 -12.3468,-0.81182 -24.7683,-0.33405 -37.1374,-0.4364 z"
       id="path5828" />
    <path
       style="fill:#000000;fill-opacity:1;stroke:#000000;stroke-width:16.625;stroke-linecap:round;stroke-linejoin:round;stroke-dasharray:none;stroke-opacity:1"
       d="m 2195.294,487.96115 c -34.76,0.94238 -69.541,1.27161 -104.2933,2.37037 -0.1532,1.91188 2.6451,3.68764 3.5495,5.45959 5.0224,5.80515 9.2793,12.49529 15.177,17.43744 12.1507,3.71928 25.0668,4.36528 37.6636,5.65701 28.5912,2.38209 57.3207,2.27132 85.9835,1.90996 1.4506,0.31435 3.3496,-0.91432 1.088,-1.85784 -11.116,-9.37273 -23.4256,-17.60926 -32.8365,-28.79449 -0.621,-3.04183 -4.1007,-1.92871 -6.3318,-2.18204 z"
       id="path5832" />
    <path
       style="fill:#000000;fill-opacity:1;stroke:#000000;stroke-width:23.5113;stroke-linecap:round;stroke-linejoin:round;stroke-dasharray:none;stroke-opacity:1"
       d="m 2230.9024,433.9861 c -1.0209,15.61575 -1.779,31.36425 -3.288,46.87381 10.0963,7.65583 20.0117,16.57268 30.2157,23.46353 0.4332,-7.29322 2.5519,-14.6259 2.5991,-21.8453 -5.0775,-8.59069 -11.4821,-16.50449 -16.1841,-25.40018 -4.7123,-7.4179 -8.4325,-16.49248 -13.3427,-23.09186 z"
       id="path5836" />
    <path
       style="fill:#000000;fill-opacity:1;stroke:#000000;stroke-width:16.625;stroke-linecap:round;stroke-linejoin:round;stroke-dasharray:none;stroke-opacity:1"
       d="m 1814.4364,378.22903 c -4.6662,13.75044 -2.7464,28.58054 -3.1224,42.82885 0.4407,30.65487 5.7597,60.95312 9.1594,91.35695 4.461,0.5421 9.3053,0.0736 13.9117,0.23249 -2.0499,-6.35501 -5.4934,-12.93659 -7.5264,-19.62278 -2.1997,-7.37292 -5.3697,-14.65014 -6.4083,-22.24597 -0.9265,-31.69414 0.3336,-63.64117 -4.6152,-95.06796 -1.0327,-0.43544 -0.8941,2.0031 -1.3988,2.51842 z"
       id="path7656" />
    <rect
       style="fill:#000000;fill-opacity:1;stroke:none;stroke-width:25;stroke-linecap:round;stroke-linejoin:round;stroke-dasharray:none;stroke-opacity:1"
       id="rect14405"
       width="76.029022"
       height="18.603617"
       x="656.12915"
       y="23.298901" />
    <path
       style="fill:#000000;fill-opacity:1;stroke:#000000;stroke-width:25;stroke-linecap:round;stroke-linejoin:round;stroke-dasharray:none;stroke-opacity:1"
       d="m 2223.5742,189.05219 c 15.0709,12.43199 19.8298,21.78973 35.762,31.74261"
       id="path16280"
       sodipodi:nodetypes="cc" />
    <path
       style="fill:#000000;fill-opacity:1;stroke:#000000;stroke-width:23.5113;stroke-linecap:round;stroke-linejoin:round;stroke-dasharray:none;stroke-opacity:1"
       d="m 1441.3709,451.29194 c -26.3385,0.57964 -52.7811,0.55282 -79.0292,2.64869 0.3688,3.5725 3.0044,7.23174 2.4595,11.21379 0.4852,9.79719 8.5468,17.10975 12.632,25.55493 1.7588,5.61616 8.3156,1.55083 12.6082,2.19139 36.7414,-2.14832 73.747,-2.7347 110.3465,-5.48407 -6.0522,-10.56536 -15.0766,-19.41688 -22.4386,-29.03644 -2.3,-2.53678 0.2005,-9.04513 -4.9408,-7.4475 -10.5459,0.11973 -21.0918,0.23947 -31.6376,0.35921 z"
       id="path16282"
       transform="translate(42.349196,20.984839)" />
    <path
       style="fill:#000000;fill-opacity:1;stroke:#000000;stroke-width:23.5113;stroke-linecap:round;stroke-linejoin:round;stroke-dasharray:none;stroke-opacity:1"
       d="m 2194.7609,199.22148 c -2.8451,2.73699 -0.6586,8.08322 -1.4217,11.62891 -1.1568,9.89643 4.9339,-2.38434 7.458,-5.10612 0.3911,-1.63891 -3.7748,-6.01558 -6.0363,-6.52279 z"
       id="path16284"
       transform="translate(42.349196,20.984839)" />
    <path
       style="fill:#000000;fill-opacity:1;stroke:#000000;stroke-width:25;stroke-linecap:round;stroke-linejoin:round;stroke-dasharray:none;stroke-opacity:1"
       d="m 2412.198,337.20252 c 22.9961,-39.61506 61.6926,-68.28791 86.7636,-105.89449 3.1617,-4.74245 4.6901,-8.47389 7.9895,-13.9307"
       id="path16290"
       sodipodi:nodetypes="csc" />
    <path
       style="fill:#000000;fill-opacity:1;stroke:#000000;stroke-width:25;stroke-linecap:round;stroke-linejoin:round;stroke-dasharray:none;stroke-opacity:1"
       d="m 2506.6956,214.69398 c -8.8152,-14.8041 -8.9103,-14.22271 -21.1834,-29.08834"
       id="path16294"
       sodipodi:nodetypes="cc" />
    <path
       style="fill:#000000;fill-opacity:1;stroke:#000000;stroke-width:23.5113;stroke-linecap:round;stroke-linejoin:round;stroke-dasharray:none;stroke-opacity:1"
       d="m 2434.938,196.31747 c -21.3777,20.13028 -46.4056,36.66056 -63.8148,60.73077 -14.1107,17.83055 -29.1549,35.19883 -43.1598,52.92797 32.4818,32.77028 63.4018,67.00381 95.2226,100.40791 4.0071,3.26016 5.8399,8.80359 9.9923,11.67116 2.6204,-0.64203 -1.3491,-4.16836 -1.6734,-5.46822 -19.4072,-28.3059 -38.4247,-57.05739 -60.593,-83.30161 -2.9463,-4.20967 -9.0361,-2.14777 -12.0422,-6.38662 -6.5281,-6.71309 -4.2746,-18.30461 2.973,-23.63618 13.2508,-17.51332 27.0562,-34.6434 42.2028,-50.57747 14.9065,-16.89253 31.4507,-32.75613 43.3645,-52.00894 2.8913,-4.38924 -3.5845,-8.20343 -5.5987,-11.07051 -2.2911,2.23724 -4.5822,4.47449 -6.8733,6.71174 z"
       id="path16296"
       transform="translate(42.349196,20.984839)" />
  </g>
  <metadata
     id="metadata9">
    <rdf:RDF>
      <cc:Work
         rdf:about="">
        <dc:title>gabl.ink logo</dc:title>
        <dc:creator>
          <cc:Agent>
            <dc:title>gabl.ink</dc:title>
          </cc:Agent>
        </dc:creator>
        <dc:rights>
          <cc:Agent>
            <dc:title>© 2024 gabl.ink. Licensed under CC0 1.0 Universal. May not be eligible for copyright due to threshold of originality.</dc:title>
          </cc:Agent>
        </dc:rights>
        <dc:publisher>
          <cc:Agent>
            <dc:title>gabl.ink</dc:title>
          </cc:Agent>
        </dc:publisher>
        <dc:language>mul-Latn</dc:language>
        <dc:subject>
          <rdf:Bag>
            <rdf:li>gabl.ink</rdf:li>
          </rdf:Bag>
        </dc:subject>
        <dc:description>a logo with the text “gabl.ink”</dc:description>
        <cc:license
           rdf:resource="http://creativecommons.org/publicdomain/zero/1.0/" />
      </cc:Work>
      <cc:License
         rdf:about="http://creativecommons.org/publicdomain/zero/1.0/">
        <cc:permits
           rdf:resource="http://creativecommons.org/ns#Reproduction" />
        <cc:permits
           rdf:resource="http://creativecommons.org/ns#Distribution" />
        <cc:permits
           rdf:resource="http://creativecommons.org/ns#DerivativeWorks" />
      </cc:License>
    </rdf:RDF>
  </metadata>
</svg>
